<svg width="176" height="128" viewBox="0 0 176 128" fill="none" xmlns="http://www.w3.org/2000/svg">
<path opacity="0.5" d="M137.236 1.0741C145.016 1.07413 151.756 2.91039 157.434 6.60242C163.149 10.2292 167.522 15.0416 170.546 21.0331L170.83 21.5956C173.715 27.4209 175.157 33.6843 175.157 40.3788C175.157 49.8032 173.986 58.8505 171.642 67.5184V67.5194C169.299 76.1271 166.029 84.085 161.83 91.3915L161.829 91.3925C157.632 98.6422 152.75 104.971 147.183 110.375C141.669 115.725 135.712 119.907 129.313 122.915L129.31 122.917C122.902 125.874 116.322 127.355 109.575 127.355C101.739 127.355 94.9701 125.519 89.2903 121.824C83.6328 118.144 79.2621 113.334 76.1848 107.399L76.1838 107.397C73.1093 101.413 71.5725 94.9614 71.5725 88.0507C71.5725 78.6264 72.7438 69.6061 75.0881 60.9921L75.0891 60.9901C77.4856 52.33 80.7548 44.3728 84.8987 37.121L84.8997 37.12C89.0966 29.8162 93.951 23.487 99.4651 18.1366C105.033 12.7329 111.017 8.55015 117.417 5.59558L118.018 5.31824C124.239 2.49047 130.646 1.0741 137.236 1.0741ZM76.7083 2.70105L76.5696 3.3114L49.3254 123.509H67.0637V125.728H0.494385V123.509H18.6047L45.3567 4.92175H26.6086V2.70105H76.7083ZM137.236 3.21277C134.484 3.21277 131.785 4.53356 129.135 7.28992L129.132 7.29382C126.466 10.0131 123.89 13.7635 121.409 18.5624L121.408 18.5643C118.926 23.3129 116.603 28.7148 114.44 34.7714C112.33 40.8313 110.408 47.1632 108.676 53.7665C106.944 60.371 105.454 66.9207 104.209 73.4159L104.21 73.4169C103.019 79.8629 102.071 85.8738 101.367 91.4491L101.366 91.4481C100.717 97.0205 100.395 101.771 100.395 105.704C100.395 108.507 100.502 111.119 100.717 113.54C100.984 115.944 101.436 118.042 102.069 119.839L102.198 120.158C102.863 121.726 103.748 122.952 104.841 123.858C106.034 124.75 107.598 125.217 109.575 125.217C112.267 125.217 114.937 123.875 117.591 121.062C120.26 118.233 122.839 114.399 125.32 109.545C127.802 104.634 130.098 99.0973 132.206 92.9335L132.208 92.9296C134.373 86.7605 136.321 80.3465 138.053 73.6884C139.786 67.0286 141.248 60.4775 142.439 54.036V54.0321C143.684 47.5878 144.631 41.6612 145.281 36.2518L145.281 36.2479C145.985 30.7814 146.335 26.2754 146.335 22.7255C146.335 19.8664 146.2 17.2548 145.931 14.8905L145.93 14.8788C145.716 12.4738 145.264 10.4076 144.58 8.67273L144.576 8.66394L144.573 8.65515C143.949 6.88548 143.024 5.56493 141.817 4.65906L141.807 4.65125L141.798 4.64441C140.66 3.70448 139.155 3.21281 137.236 3.21277Z" fill="#343434" stroke="black"/>
</svg>
