<svg width="143" height="11" viewBox="0 0 143 11" fill="none" xmlns="http://www.w3.org/2000/svg">
<path d="M8.7758 8.18728L9.16368 8.53637C9.05163 8.66566 8.88786 8.81651 8.67237 8.9889C8.45688 9.16129 8.18536 9.32506 7.85782 9.48021C7.53889 9.62674 7.15963 9.75173 6.72003 9.85516C6.28905 9.9586 5.79774 10.0103 5.24609 10.0103C4.37551 10.0103 3.62561 9.87671 2.99638 9.60951C2.36715 9.33368 1.84998 8.97597 1.44486 8.53637C1.03974 8.08815 0.738051 7.5796 0.539801 7.0107C0.35017 6.43319 0.255355 5.84275 0.255355 5.23938C0.255355 4.5412 0.376029 3.91197 0.617377 3.3517C0.858725 2.7828 1.1992 2.30011 1.6388 1.90361C2.07839 1.49849 2.60419 1.18818 3.21618 0.972694C3.83679 0.757205 4.52204 0.649461 5.27195 0.649461C5.78912 0.649461 6.25027 0.701178 6.65539 0.804613C7.06051 0.908048 7.41391 1.05027 7.71559 1.23128C8.01728 1.41229 8.26725 1.62778 8.4655 1.87775C8.67237 2.12772 8.84045 2.39923 8.96974 2.6923H8.01297C7.95263 2.51129 7.84489 2.33459 7.68974 2.1622C7.5432 1.98118 7.34926 1.82172 7.10791 1.68381C6.87519 1.5459 6.60367 1.43384 6.29336 1.34765C5.99168 1.26145 5.65552 1.21835 5.28487 1.21835C4.74184 1.21835 4.2376 1.31748 3.77214 1.51573C3.3153 1.71398 2.9188 1.9898 2.58264 2.34321C2.24648 2.69661 1.98358 3.11897 1.79395 3.61028C1.61294 4.09298 1.52243 4.62739 1.52243 5.21352C1.52243 5.76518 1.60863 6.29528 1.78102 6.80383C1.96203 7.31239 2.22493 7.76061 2.56971 8.14849C2.91449 8.53637 3.34547 8.84667 3.86265 9.0794C4.37982 9.31213 4.97457 9.42849 5.6469 9.42849C6.85364 9.42849 7.89661 9.01476 8.7758 8.18728ZM16.1266 5.32989C16.1266 4.83857 16.2172 4.31709 16.3982 3.76544C16.5878 3.21378 16.8809 2.70954 17.2774 2.2527C17.6739 1.78724 18.1781 1.40367 18.7901 1.10199C19.4021 0.800303 20.1347 0.649461 20.9881 0.649461C21.85 0.649461 22.5956 0.804613 23.2249 1.11492C23.8627 1.4166 24.3885 1.80017 24.8022 2.26563C25.216 2.73109 25.522 3.23964 25.7202 3.79129C25.9185 4.33433 26.0176 4.84719 26.0176 5.32989C26.0176 5.64881 25.9702 5.98498 25.8754 6.33838C25.7892 6.69178 25.6556 7.04518 25.4746 7.39859C25.3022 7.74337 25.0781 8.07522 24.8022 8.39415C24.5264 8.70445 24.1989 8.98028 23.8196 9.22163C23.449 9.46297 23.0266 9.65691 22.5525 9.80345C22.0871 9.94136 21.5656 10.0103 20.9881 10.0103C20.1347 10.0103 19.4021 9.85947 18.7901 9.55779C18.1781 9.24748 17.6739 8.8596 17.2774 8.39415C16.8809 7.92869 16.5878 7.42444 16.3982 6.88141C16.2172 6.32976 16.1266 5.81258 16.1266 5.32989ZM17.3937 5.32989C17.3937 5.93326 17.4842 6.48922 17.6652 6.99778C17.8549 7.49771 18.1091 7.92869 18.4281 8.29071C18.7556 8.65273 19.1392 8.93718 19.5788 9.14405C20.0184 9.3423 20.4968 9.44142 21.0139 9.44142C21.5225 9.44142 22.0009 9.3423 22.4491 9.14405C22.9059 8.93718 23.3024 8.65273 23.6386 8.29071C23.9834 7.92869 24.2549 7.49771 24.4532 6.99778C24.6514 6.48922 24.7505 5.93326 24.7505 5.32989C24.7505 4.72652 24.6514 4.17487 24.4532 3.67493C24.2549 3.16638 23.9834 2.73109 23.6386 2.36906C23.3024 2.00704 22.9059 1.72691 22.4491 1.52866C22.0009 1.32179 21.5225 1.21835 21.0139 1.21835C20.4968 1.21835 20.0184 1.32179 19.5788 1.52866C19.1392 1.72691 18.7556 2.00704 18.4281 2.36906C18.1091 2.73109 17.8549 3.16638 17.6652 3.67493C17.4842 4.17487 17.3937 4.72652 17.3937 5.32989ZM34.2793 9.85516V0.804613H35.4558V9.14405H40.1233V9.85516H34.2793ZM48.1177 9.85516V0.804613H49.2943V9.14405H53.9618V9.85516H48.1177ZM61.9562 0.804613H67.8002V1.51573H63.1327V4.761H67.1408V5.35575H63.1327V9.14405H67.8002V9.85516H61.9562V0.804613ZM83.41 8.18728L83.7979 8.53637C83.6858 8.66566 83.5221 8.81651 83.3066 8.9889C83.0911 9.16129 82.8196 9.32506 82.492 9.48021C82.1731 9.62674 81.7938 9.75173 81.3542 9.85516C80.9233 9.9586 80.432 10.0103 79.8803 10.0103C79.0097 10.0103 78.2598 9.87671 77.6306 9.60951C77.0014 9.33368 76.4842 8.97597 76.0791 8.53637C75.674 8.08815 75.3723 7.5796 75.174 7.0107C74.9844 6.43319 74.8896 5.84275 74.8896 5.23938C74.8896 4.5412 75.0102 3.91197 75.2516 3.3517C75.4929 2.7828 75.8334 2.30011 76.273 1.90361C76.7126 1.49849 77.2384 1.18818 77.8504 0.972694C78.471 0.757205 79.1563 0.649461 79.9062 0.649461C80.4233 0.649461 80.8845 0.701178 81.2896 0.804613C81.6947 0.908048 82.0481 1.05027 82.3498 1.23128C82.6515 1.41229 82.9015 1.62778 83.0997 1.87775C83.3066 2.12772 83.4747 2.39923 83.604 2.6923H82.6472C82.5868 2.51129 82.4791 2.33459 82.324 2.1622C82.1774 1.98118 81.9835 1.82172 81.7421 1.68381C81.5094 1.5459 81.2379 1.43384 80.9276 1.34765C80.6259 1.26145 80.2897 1.21835 79.9191 1.21835C79.3761 1.21835 78.8718 1.31748 78.4064 1.51573C77.9495 1.71398 77.553 1.9898 77.2169 2.34321C76.8807 2.69661 76.6178 3.11897 76.4282 3.61028C76.2472 4.09298 76.1566 4.62739 76.1566 5.21352C76.1566 5.76518 76.2428 6.29528 76.4152 6.80383C76.5962 7.31239 76.8591 7.76061 77.2039 8.14849C77.5487 8.53637 77.9797 8.84667 78.4969 9.0794C79.014 9.31213 79.6088 9.42849 80.2811 9.42849C81.4879 9.42849 82.5308 9.01476 83.41 8.18728ZM95.0146 9.85516H93.838V1.51573H90.373V0.804613H98.4797V1.51573H95.0146V9.85516ZM106.868 0.804613H108.044V9.85516H106.868V0.804613ZM116.822 5.32989C116.822 4.83857 116.912 4.31709 117.093 3.76544C117.283 3.21378 117.576 2.70954 117.972 2.2527C118.369 1.78724 118.873 1.40367 119.485 1.10199C120.097 0.800303 120.83 0.649461 121.683 0.649461C122.545 0.649461 123.291 0.804613 123.92 1.11492C124.558 1.4166 125.083 1.80017 125.497 2.26563C125.911 2.73109 126.217 3.23964 126.415 3.79129C126.613 4.33433 126.713 4.84719 126.713 5.32989C126.713 5.64881 126.665 5.98498 126.57 6.33838C126.484 6.69178 126.351 7.04518 126.17 7.39859C125.997 7.74337 125.773 8.07522 125.497 8.39415C125.221 8.70445 124.894 8.98028 124.515 9.22163C124.144 9.46297 123.722 9.65691 123.247 9.80345C122.782 9.94136 122.261 10.0103 121.683 10.0103C120.83 10.0103 120.097 9.85947 119.485 9.55779C118.873 9.24748 118.369 8.8596 117.972 8.39415C117.576 7.92869 117.283 7.42444 117.093 6.88141C116.912 6.32976 116.822 5.81258 116.822 5.32989ZM118.089 5.32989C118.089 5.93326 118.179 6.48922 118.36 6.99778C118.55 7.49771 118.804 7.92869 119.123 8.29071C119.451 8.65273 119.834 8.93718 120.274 9.14405C120.713 9.3423 121.192 9.44142 121.709 9.44142C122.217 9.44142 122.696 9.3423 123.144 9.14405C123.601 8.93718 123.997 8.65273 124.334 8.29071C124.678 7.92869 124.95 7.49771 125.148 6.99778C125.346 6.48922 125.445 5.93326 125.445 5.32989C125.445 4.72652 125.346 4.17487 125.148 3.67493C124.95 3.16638 124.678 2.73109 124.334 2.36906C123.997 2.00704 123.601 1.72691 123.144 1.52866C122.696 1.32179 122.217 1.21835 121.709 1.21835C121.192 1.21835 120.713 1.32179 120.274 1.52866C119.834 1.72691 119.451 2.00704 119.123 2.36906C118.804 2.73109 118.55 3.16638 118.36 3.67493C118.179 4.17487 118.089 4.72652 118.089 5.32989ZM142.266 0.804613H142.861V10.0103H142.796L135.621 2.93796H135.569V9.85516H134.974V0.649461H135.039L142.215 7.72182H142.266V0.804613Z" fill="#FCFCFC"/>
</svg>
