<svg width="20" height="24" viewBox="0 0 20 24" fill="none" xmlns="http://www.w3.org/2000/svg">
<path d="M8.94598 0.480185C8.90208 0.48142 8.85855 0.488675 8.81661 0.501748L1.13661 2.90175C1.03898 2.93233 0.953678 2.99329 0.893135 3.07576C0.832592 3.15823 0.799978 3.25788 0.800049 3.36018V21.1202C0.800007 21.2273 0.835789 21.3314 0.901704 21.4158C0.967618 21.5002 1.05988 21.5602 1.1638 21.5861L8.8438 23.5061C8.91457 23.5238 8.98844 23.5251 9.0598 23.5099C9.13115 23.4947 9.19811 23.4635 9.25558 23.4186C9.31306 23.3737 9.35955 23.3163 9.39151 23.2507C9.42347 23.1851 9.44007 23.1131 9.44005 23.0402V0.960185C9.44007 0.895952 9.4272 0.832367 9.4022 0.773198C9.3772 0.714029 9.34058 0.660478 9.29451 0.615719C9.24844 0.570959 9.19385 0.535901 9.13399 0.51262C9.07412 0.489339 9.01019 0.47831 8.94598 0.480185ZM8.48005 1.61362V22.4252L1.76005 20.7452V3.71269L8.48005 1.61362ZM10.4 2.40018V3.36018H14.24V12.9602H15.2V2.88019C15.2 2.75289 15.1495 2.6308 15.0594 2.54079C14.9694 2.45077 14.8473 2.4002 14.72 2.40018H10.4ZM7.52005 11.5202C7.39274 11.5202 7.27065 11.596 7.18064 11.7311C7.09062 11.8661 7.04005 12.0492 7.04005 12.2402C7.04005 12.4311 7.09062 12.6143 7.18064 12.7493C7.27065 12.8843 7.39274 12.9602 7.52005 12.9602C7.64735 12.9602 7.76944 12.8843 7.85946 12.7493C7.94948 12.6143 8.00005 12.4311 8.00005 12.2402C8.00005 12.0492 7.94948 11.8661 7.85946 11.7311C7.76944 11.596 7.64735 11.5202 7.52005 11.5202ZM10.88 13.9202C10.7527 13.9202 10.6307 13.9708 10.5407 14.0608C10.4506 14.1508 10.4001 14.2729 10.4 14.4002V21.1202C10.4001 21.2475 10.4506 21.3696 10.5407 21.4596C10.6307 21.5496 10.7527 21.6002 10.88 21.6002H18.56C18.6873 21.6002 18.8094 21.5496 18.8994 21.4596C18.9895 21.3696 19.04 21.2475 19.04 21.1202V14.4002C19.04 14.2729 18.9895 14.1508 18.8994 14.0608C18.8094 13.9708 18.6873 13.9202 18.56 13.9202H10.88ZM11.36 14.8802H18.08V20.6402H11.36V14.8802ZM13.76 15.8402C13.6964 15.8393 13.6333 15.851 13.5743 15.8748C13.5152 15.8985 13.4615 15.9337 13.4162 15.9783C13.3709 16.023 13.335 16.0762 13.3104 16.1349C13.2859 16.1936 13.2732 16.2566 13.2732 16.3202C13.2732 16.3838 13.2859 16.4468 13.3104 16.5055C13.335 16.5641 13.3709 16.6174 13.4162 16.662C13.4615 16.7067 13.5152 16.7419 13.5743 16.7656C13.6333 16.7893 13.6964 16.8011 13.76 16.8002H15.68C15.7437 16.8011 15.8068 16.7893 15.8658 16.7656C15.9249 16.7419 15.9786 16.7067 16.0239 16.662C16.0692 16.6174 16.1051 16.5641 16.1297 16.5055C16.1542 16.4468 16.1669 16.3838 16.1669 16.3202C16.1669 16.2566 16.1542 16.1936 16.1297 16.1349C16.1051 16.0762 16.0692 16.023 16.0239 15.9783C15.9786 15.9337 15.9249 15.8985 15.8658 15.8748C15.8068 15.851 15.7437 15.8393 15.68 15.8402H13.76Z" fill="black"/>
</svg>
