<svg width="21" height="20" viewBox="0 0 21 20" fill="none" xmlns="http://www.w3.org/2000/svg">
<path d="M6.49846 0.183716C3.41126 0.183716 0.900024 2.69728 0.900024 5.78528V13.7853C0.900024 16.8725 3.41359 19.3837 6.50159 19.3837H14.5016C17.5888 19.3837 20.1 16.8702 20.1 13.7822V5.78215C20.1 2.69495 17.5865 0.183716 14.4985 0.183716H6.49846ZM16.1 3.38372C16.5416 3.38372 16.9 3.74212 16.9 4.18372C16.9 4.62532 16.5416 4.98372 16.1 4.98372C15.6584 4.98372 15.3 4.62532 15.3 4.18372C15.3 3.74212 15.6584 3.38372 16.1 3.38372ZM10.5 4.98372C13.1472 4.98372 15.3 7.13652 15.3 9.78372C15.3 12.4309 13.1472 14.5837 10.5 14.5837C7.85282 14.5837 5.70002 12.4309 5.70002 9.78372C5.70002 7.13652 7.85282 4.98372 10.5 4.98372ZM10.5 6.58372C9.65133 6.58372 8.8374 6.92086 8.23728 7.52097C7.63717 8.12109 7.30002 8.93502 7.30002 9.78372C7.30002 10.6324 7.63717 11.4463 8.23728 12.0465C8.8374 12.6466 9.65133 12.9837 10.5 12.9837C11.3487 12.9837 12.1626 12.6466 12.7628 12.0465C13.3629 11.4463 13.7 10.6324 13.7 9.78372C13.7 8.93502 13.3629 8.12109 12.7628 7.52097C12.1626 6.92086 11.3487 6.58372 10.5 6.58372Z" fill="#333333"/>
</svg>
