<svg width="160" height="33" viewBox="0 0 160 33" fill="none" xmlns="http://www.w3.org/2000/svg">
<path d="M11.219 32.8982C7.70239 32.8982 4.97421 31.9004 3.03448 29.9049C1.09476 27.9093 0.124894 25.2091 0.124894 21.8041C0.124894 19.348 0.466788 17.0455 1.15058 14.8964C1.83436 12.7474 2.76934 10.8007 3.9555 9.05631C5.15562 7.31195 6.53018 5.8118 8.07917 4.55586C9.62816 3.29993 11.2748 2.33704 13.0192 1.6672C14.7775 0.997371 16.5498 0.662454 18.336 0.662454C20.5409 0.662454 22.4736 1.11599 24.1342 2.02305C25.8088 2.91617 27.1066 4.19304 28.0277 5.85367C28.9626 7.5143 29.4301 9.48193 29.4301 11.7566C29.4301 14.8266 28.9277 17.6525 27.923 20.2342C26.9182 22.8019 25.5507 25.0346 23.8203 26.9325C22.1038 28.8164 20.1571 30.2817 17.9801 31.3283C15.8032 32.3749 13.5495 32.8982 11.219 32.8982ZM11.219 32.6051C12.3633 32.6051 13.4378 32.2284 14.4426 31.4748C15.4613 30.7212 16.3963 29.6956 17.2475 28.3978C18.1127 27.086 18.8802 25.5998 19.5501 23.9392C20.2339 22.2785 20.813 20.5272 21.2875 18.6852C21.7619 16.8431 22.1178 15.0081 22.355 13.18C22.6062 11.3379 22.7318 9.60753 22.7318 7.98876C22.7318 7.08169 22.655 6.20952 22.5015 5.37222C22.362 4.53493 22.1178 3.78835 21.7689 3.13247C21.434 2.46263 20.9804 1.93235 20.4083 1.54161C19.8501 1.15088 19.1593 0.955508 18.336 0.955508C17.2615 0.955508 16.2288 1.33229 15.238 2.08585C14.2612 2.83941 13.3402 3.87207 12.475 5.18383C11.6237 6.48163 10.8492 7.96085 10.1515 9.62148C9.46768 11.2821 8.8746 13.0334 8.37222 14.8755C7.8838 16.7175 7.50004 18.5596 7.22094 20.4016C6.9558 22.2297 6.82323 23.9531 6.82323 25.5719C6.82323 27.0511 6.9558 28.314 7.22094 29.3606C7.50004 30.4073 7.96055 31.2097 8.60248 31.7679C9.2444 32.326 10.1166 32.6051 11.219 32.6051ZM39.3196 32.8982C37.1427 32.8982 35.4541 32.3121 34.254 31.1399C33.0678 29.9677 32.4748 28.3698 32.4748 26.3464C32.4748 24.7416 32.8027 23.1437 33.4586 21.5529C34.1284 19.9481 35.0425 18.4898 36.2007 17.178C37.359 15.8523 38.6847 14.7918 40.1779 13.9963C41.685 13.2009 43.2898 12.8032 44.9923 12.8032C46.2343 12.8032 47.3227 13.0334 48.2577 13.494C49.1927 13.9405 49.9184 14.5196 50.4347 15.2313C50.951 15.9291 51.2092 16.6547 51.2092 17.4083C51.2092 18.3572 50.9091 19.1317 50.3091 19.7318C49.709 20.3318 48.9764 20.6319 48.1112 20.6319C47.3297 20.6319 46.632 20.4086 46.018 19.962C45.404 19.5015 45.0969 18.8038 45.0969 17.8688C45.0969 17.0315 45.383 16.3338 45.9552 15.7756C46.5413 15.2034 47.246 14.9174 48.0693 14.9174C48.5717 14.9174 49.0601 15.0081 49.5346 15.1895C50.0091 15.3709 50.3998 15.65 50.7068 16.0268C51.0138 16.3896 51.1673 16.8501 51.1673 17.4083H50.8952C50.8952 16.6966 50.658 16.0337 50.1835 15.4197C49.723 14.8057 49.1299 14.3103 48.4042 13.9335C47.6786 13.5428 46.9111 13.3474 46.1017 13.3474C45.0551 13.3474 44.0922 13.7242 43.213 14.4778C42.3339 15.2174 41.5524 16.1942 40.8686 17.4083C40.1848 18.6224 39.5987 19.9411 39.1103 21.3645C38.6219 22.7739 38.2521 24.1625 38.0009 25.53C37.7497 26.8837 37.6241 28.0698 37.6241 29.0885C37.6241 30.1072 37.8474 30.9096 38.2939 31.4957C38.7545 32.0679 39.4103 32.354 40.2616 32.354C41.4617 32.354 42.5851 32.0958 43.6317 31.5795C44.6783 31.0631 45.6272 30.3933 46.4785 29.57C47.3437 28.7327 48.0903 27.8396 48.7182 26.8906L48.9904 27.0581C48.3345 28.0349 47.546 28.9699 46.625 29.863C45.7179 30.7561 44.6574 31.4888 43.4433 32.0609C42.2432 32.6191 40.8686 32.8982 39.3196 32.8982ZM59.4058 32.8982C58.3313 32.8982 57.473 32.7517 56.8311 32.4586C56.2032 32.1516 55.7496 31.7679 55.4705 31.3073C55.2054 30.8329 55.0728 30.3375 55.0728 29.8212C55.0728 29.5002 55.1216 29.1164 55.2193 28.6699C55.331 28.2094 55.4426 27.7698 55.5542 27.3511L60.4315 9.03538H65.8739L60.0547 30.5328C60.0128 30.6724 59.971 30.8399 59.9291 31.0352C59.8872 31.2166 59.8663 31.405 59.8663 31.6004C59.8663 32.033 60.1594 32.2493 60.7455 32.2493C61.1641 32.2493 61.6176 32.1446 62.1061 31.9353C62.6084 31.726 63.1248 31.3771 63.655 30.8887C64.1993 30.4003 64.7505 29.7235 65.3087 28.8583C65.8669 27.9791 66.4111 26.8837 66.9414 25.5719L67.2554 25.6556C66.5856 27.2604 65.8809 28.6001 65.1412 29.6746C64.4156 30.7491 63.5853 31.5585 62.6503 32.1028C61.7293 32.6331 60.6478 32.8982 59.4058 32.8982ZM55.1984 13.5358V13.2218H68.5951V13.5358H55.1984ZM78.1163 32.8982C75.8417 32.8982 74.0973 32.326 72.8832 31.1818C71.6692 30.0375 71.0621 28.4187 71.0621 26.3255C71.0621 24.5671 71.397 22.8786 72.0669 21.2598C72.7367 19.6411 73.6508 18.1967 74.809 16.9269C75.9673 15.657 77.293 14.6522 78.7861 13.9126C80.2933 13.173 81.8771 12.8032 83.5378 12.8032C85.8124 12.8032 87.5707 13.3963 88.8127 14.5824C90.0687 15.7686 90.6966 17.4083 90.6966 19.5015C90.6966 21.218 90.3687 22.8786 89.7128 24.4834C89.0569 26.0882 88.1499 27.5256 86.9916 28.7955C85.8473 30.0514 84.5146 31.0492 82.9935 31.7888C81.4725 32.5284 79.8467 32.8982 78.1163 32.8982ZM77.8651 32.5842C78.4373 32.5842 79.0234 32.2981 79.6234 31.726C80.2235 31.1399 80.8096 30.3584 81.3817 29.3816C81.9679 28.4047 82.5191 27.3163 83.0354 26.1161C83.5517 24.9021 84.0053 23.6531 84.396 22.3693C84.7867 21.0714 85.0937 19.8225 85.317 18.6224C85.5403 17.4223 85.6519 16.3617 85.6519 15.4407C85.6519 14.715 85.4984 14.1498 85.1914 13.7451C84.8984 13.3405 84.4309 13.1381 83.789 13.1381C83.2168 13.1381 82.6307 13.4242 82.0306 13.9963C81.4306 14.5685 80.8375 15.343 80.2514 16.3198C79.6653 17.2967 79.1141 18.3921 78.5978 19.6062C78.0954 20.8203 77.6488 22.0692 77.2581 23.3531C76.8673 24.6369 76.5603 25.8789 76.3371 27.079C76.1138 28.2791 76.0021 29.3467 76.0021 30.2817C76.0021 30.9934 76.1487 31.5585 76.4417 31.9772C76.7487 32.3819 77.2232 32.5842 77.8651 32.5842ZM102.428 32.8982C101.297 32.8982 100.244 32.661 99.2667 32.1865C98.2899 31.6981 97.4177 31.0422 96.6502 30.2189C95.8827 29.3955 95.2547 28.4745 94.7663 27.4558L101.758 1.39509H98.4922V1.0811H107.263L99.5598 29.7165C99.5598 30.484 99.6784 31.1329 99.9156 31.6632C100.167 32.1935 100.655 32.4586 101.381 32.4586C102.107 32.4586 102.825 32.1167 103.537 31.4329C104.249 30.7491 104.918 29.8491 105.546 28.7327C106.174 27.6023 106.733 26.3673 107.221 25.0277C107.709 23.688 108.093 22.3553 108.372 21.0296C108.651 19.6899 108.791 18.4898 108.791 17.4292C108.791 16.3407 108.623 15.4825 108.289 14.8546C107.954 14.2126 107.479 13.8917 106.865 13.8917C106.167 13.8917 105.532 14.2057 104.96 14.8336C104.388 15.4476 103.865 16.257 103.39 17.2618C102.916 18.2526 102.49 19.3341 102.114 20.5063C101.737 21.6645 101.402 22.7949 101.109 23.8973H100.816C101.29 22.1948 101.758 20.6668 102.218 19.3131C102.693 17.9456 103.209 16.7803 103.767 15.8174C104.339 14.8546 105.002 14.1219 105.756 13.6195C106.523 13.1032 107.437 12.8451 108.498 12.8451C110.368 12.8451 111.805 13.5009 112.81 14.8127C113.829 16.1244 114.338 17.8618 114.338 20.0248C114.338 21.6576 114.024 23.2414 113.396 24.7765C112.768 26.3115 111.903 27.693 110.8 28.9211C109.698 30.1351 108.428 31.105 106.991 31.8307C105.553 32.5424 104.032 32.8982 102.428 32.8982ZM125.467 32.8982C123.946 32.8982 122.676 32.6051 121.657 32.019C120.652 31.419 119.892 30.6166 119.375 29.6118C118.873 28.5931 118.622 27.4558 118.622 26.1999C118.622 24.4834 118.943 22.8228 119.585 21.218C120.227 19.6132 121.12 18.1828 122.264 16.9269C123.408 15.657 124.734 14.6522 126.241 13.9126C127.748 13.173 129.367 12.8032 131.098 12.8032C133.079 12.8032 134.621 13.2358 135.724 14.101C136.826 14.9662 137.377 16.0268 137.377 17.2827C137.377 18.3014 137.056 19.2224 136.414 20.0458C135.786 20.8691 134.879 21.5808 133.693 22.1809C132.521 22.7809 131.118 23.2624 129.486 23.6252C127.853 23.988 126.032 24.2183 124.022 24.316V24.0857C125.041 24.0159 125.997 23.7647 126.89 23.3321C127.783 22.8856 128.593 22.3274 129.318 21.6576C130.044 20.9738 130.672 20.2342 131.202 19.4387C131.733 18.6293 132.137 17.82 132.416 17.0106C132.709 16.2012 132.856 15.4546 132.856 14.7708C132.856 14.3522 132.772 13.9754 132.605 13.6405C132.437 13.3056 132.13 13.1381 131.684 13.1381C131.056 13.1381 130.421 13.4172 129.779 13.9754C129.151 14.5336 128.537 15.2872 127.937 16.2361C127.351 17.185 126.806 18.2386 126.304 19.3969C125.802 20.5551 125.362 21.7483 124.985 22.9763C124.609 24.2043 124.309 25.3835 124.085 26.5138C123.876 27.6442 123.771 28.635 123.771 29.4862C123.771 30.6166 124.002 31.3911 124.462 31.8097C124.936 32.2144 125.557 32.4168 126.325 32.4168C127.358 32.4168 128.376 32.2005 129.381 31.7679C130.4 31.3213 131.377 30.6864 132.312 29.863C133.247 29.0397 134.098 28.0489 134.865 26.8906L135.138 27.0581C134.482 28.0489 133.7 28.9908 132.793 29.8839C131.886 30.7631 130.825 31.4888 129.611 32.0609C128.411 32.6191 127.03 32.8982 125.467 32.8982ZM140.785 32.4796L145.599 13.5358H142.25V13.2218H150.895L146.185 32.4796H140.785ZM147.483 26.1999C147.734 25.1672 148.034 24.0438 148.383 22.8298C148.746 21.6157 149.165 20.4225 149.639 19.2503C150.127 18.0781 150.672 17.0106 151.272 16.0477C151.886 15.0709 152.57 14.2894 153.323 13.7033C154.091 13.1172 154.928 12.8241 155.835 12.8241C156.937 12.8241 157.83 13.1451 158.514 13.787C159.212 14.415 159.561 15.2244 159.561 16.2152C159.561 17.1641 159.268 17.9665 158.682 18.6224C158.096 19.2643 157.328 19.5853 156.379 19.5853C155.472 19.5853 154.719 19.2992 154.119 18.727C153.518 18.1549 153.218 17.4223 153.218 16.5291C153.218 15.65 153.518 14.9383 154.119 14.394C154.719 13.8498 155.479 13.5777 156.4 13.5777C157.251 13.5777 157.984 13.8079 158.598 14.2685C159.212 14.729 159.519 15.3779 159.519 16.2152H159.226C159.226 15.2941 158.912 14.5545 158.284 13.9963C157.67 13.4242 156.854 13.1381 155.835 13.1381C154.956 13.1381 154.153 13.4312 153.428 14.0173C152.702 14.5894 152.039 15.3569 151.439 16.3198C150.839 17.2687 150.302 18.3223 149.827 19.4806C149.367 20.6249 148.955 21.7831 148.592 22.9554C148.244 24.1276 147.943 25.2091 147.692 26.1999H147.483Z" fill="#FCFCFC"/>
</svg>
