<svg width="47" height="47" viewBox="0 0 47 47" fill="none" xmlns="http://www.w3.org/2000/svg">
<path d="M23.5 0.307861C10.817 0.307861 0.5 10.6249 0.5 23.3079C0.5 35.9909 10.817 46.3079 23.5 46.3079C36.183 46.3079 46.5 35.9909 46.5 23.3079C46.5 18.7479 45.1603 14.4972 42.8633 10.9192L41.4941 12.5364C43.3891 15.6904 44.5 19.3679 44.5 23.3079C44.5 34.8869 35.079 44.3079 23.5 44.3079C11.921 44.3079 2.5 34.8869 2.5 23.3079C2.5 11.7289 11.921 2.30786 23.5 2.30786C28.943 2.30786 33.8939 4.40763 37.6289 7.81763L38.9375 6.27271C34.8525 2.5677 29.435 0.307861 23.5 0.307861ZM41.7363 6.06177L22.4141 28.8625L14.2812 21.2766L12.918 22.7395L22.584 31.7551L43.2637 7.35474L41.7363 6.06177Z" fill="#A8715A"/>
</svg>
