<svg width="21" height="18" viewBox="0 0 21 18" fill="none" xmlns="http://www.w3.org/2000/svg">
<path d="M20.9 2.33332C20.1344 2.67332 19.312 2.90212 18.4488 3.00532C19.3304 2.47732 20.0064 1.64132 20.3248 0.64452C19.5008 1.13332 18.5872 1.48852 17.6144 1.68052C16.836 0.85092 15.7272 0.33252 14.5 0.33252C12.1432 0.33252 10.2328 2.24372 10.2328 4.59972C10.2328 4.93412 10.2712 5.26052 10.3432 5.57172C6.79684 5.39412 3.65284 3.69492 1.54724 1.11252C1.18084 1.74292 0.970443 2.47572 0.970443 3.25892C0.970443 4.73892 1.72324 6.04532 2.86804 6.81012C2.16884 6.78772 1.51044 6.59572 0.935243 6.27652C0.935243 6.29492 0.935243 6.31172 0.935243 6.33012C0.935243 8.39812 2.40564 10.1229 4.35844 10.5141C4.00084 10.6117 3.62324 10.6637 3.23364 10.6637C2.95924 10.6637 2.69124 10.6365 2.43124 10.5877C2.97444 12.2829 4.55044 13.5173 6.41764 13.5517C4.95764 14.6965 3.11764 15.3789 1.11764 15.3789C0.773643 15.3789 0.433643 15.3589 0.0992432 15.3189C1.98804 16.5293 4.23044 17.2357 6.64084 17.2357C14.4904 17.2357 18.7816 10.7333 18.7816 5.09412C18.7816 4.90932 18.7776 4.72532 18.7696 4.54212C19.604 3.93972 20.328 3.18852 20.9 2.33332Z" fill="#333333"/>
</svg>
